# xmcd CD database file
#
# Track frame offsets:
#	150
#	17532
#	46541
#	71816
#	99899
#
# Disc length: 2558 seconds
#
# Revision: 1
# Processed by: cddbd v1.5.2PL0 Copyright (c) Steve Scherf et al.
# Submitted via: CDex 1.51
#
DISCID=2f09fc05
DTITLE=Michael Moog - You belong to me
DYEAR=2001
DGENRE=Club-House
TTITLE0=edit by Davey Gold
TTITLE1=Static Revenger Remix
TTITLE2=Audio Drive Remix
TTITLE3=Timmi Magic and Bobby Simms Remix
TTITLE4=Video
EXTD=YEAR: 2001
EXTT0=
EXTT1=
EXTT2=
EXTT3=
EXTT4=
PLAYORDER=
